<svg width="100" height="100" viewBox="0 0 100 100" fill="none" xmlns="http://www.w3.org/2000/svg">
<path d="M68.1389 38.3333V38.3335C68.1391 40.5056 67.4979 42.6294 66.2959 44.4385C65.0938 46.2476 63.3843 47.6616 61.3818 48.503L59.7458 49.1904L60.2337 50.8967C60.5367 51.9565 60.6918 53.0532 60.6944 54.1555C60.693 60.7603 55.3412 66.1111 48.7361 66.1111H48.7358C47.0885 66.1114 45.459 65.7698 43.9505 65.1079C42.442 64.4461 41.0872 63.4784 39.9719 62.2661L38.5045 60.6712L37.0323 62.2616C34.8412 64.6286 31.7278 66.1111 28.2639 66.1111C21.888 66.1111 16.6862 61.1113 16.3417 54.8122L16.254 53.2091L14.6699 52.948C12.5286 52.5951 10.5822 51.4934 9.17751 49.8392C7.77304 48.1852 7.00138 46.0864 7 43.9165C7.00106 41.8482 7.70201 39.8411 8.98882 38.2217C10.2758 36.6022 12.0731 35.4659 14.0881 34.9978L15.2049 34.7383L15.5453 33.6436C17.9875 25.7908 25.3136 20.0938 33.9645 20.0938C40.3324 20.0938 45.9687 23.1939 49.4856 27.9693L50.5014 29.3485L52.0204 28.5568C53.5471 27.7611 55.2748 27.3056 57.1111 27.3056C60.0359 27.3056 62.8408 28.4674 64.9089 30.5355C66.977 32.6036 68.1389 35.4086 68.1389 38.3333Z" stroke="#A2F1FF" stroke-width="4"/>
<path d="M16.028 73.6945C16.028 75.6735 14.4237 77.2778 12.4447 77.2778C10.4656 77.2778 8.86133 75.6735 8.86133 73.6945C8.86133 71.7155 10.4656 70.1111 12.4447 70.1111C14.4237 70.1111 16.028 71.7155 16.028 73.6945Z" stroke="#A2F1FF" stroke-width="4"/>
</svg>
