<svg width="100" height="100" viewBox="0 0 100 100" fill="none" xmlns="http://www.w3.org/2000/svg">
<path d="M34 23.25C17.5711 23.25 4.25 36.5711 4.25 53C4.25 69.4289 17.5711 82.75 34 82.75C50.4289 82.75 63.75 69.4289 63.75 53C63.75 36.5711 50.4289 23.25 34 23.25ZM34 77.7031C20.3602 77.7031 9.29688 66.6398 9.29688 53C9.29688 39.3602 20.3602 28.2969 34 28.2969C47.6398 28.2969 58.7031 39.3602 58.7031 53C58.7031 66.6398 47.6398 77.7031 34 77.7031Z" fill="#A2F1FF" stroke="#0E131C" stroke-width="0.5"/>
<path d="M45.6012 61.407L36.1316 54.5605V38.125C36.1316 37.8328 35.8926 37.5938 35.6004 37.5938H32.4062C32.1141 37.5938 31.875 37.8328 31.875 38.125V56.4133C31.875 56.5859 31.9547 56.7453 32.0941 56.8449L43.0777 64.8535C43.3168 65.0262 43.6488 64.973 43.8215 64.7406L45.7207 62.1508C45.8934 61.9051 45.8402 61.573 45.6012 61.407Z" fill="#A2F1FF" stroke="#0E131C" stroke-width="0.5"/>
</svg>
