<svg width="100" height="100" viewBox="0 0 100 100" fill="none" xmlns="http://www.w3.org/2000/svg">
<path d="M45.75 41.625H34.5V32.25C34.6889 30.4499 34.155 28.6484 33.0157 27.2419C31.8765 25.8354 30.2251 24.939 28.425 24.75C27.9517 24.6938 27.4733 24.6938 27 24.75H24.0563C23.4295 24.7672 22.8262 24.9919 22.3409 25.3889C21.8557 25.786 21.5159 26.3328 21.375 26.9438V27.1688L19.5 39.0563L12.8625 49.125H0.75V75.375H36.375C50.325 75.375 53.25 67.2188 53.25 60.375V49.125C53.4389 47.3249 52.905 45.5234 51.7657 44.1169C50.6265 42.7104 48.9751 41.814 47.175 41.625C46.7017 41.5688 46.2233 41.5688 45.75 41.625ZM12 71.625H4.5V52.875H12V71.625ZM49.5 60.375C49.5 68.0438 45.3375 71.625 36.375 71.625H15.75V51.5625L23.25 40.4438L24.6187 30.375L24.8813 28.5H27C29.7 28.5 30.75 29.55 30.75 32.25V45.375H45.75C48.45 45.375 49.5 46.425 49.5 49.125V60.375Z" fill="#A2F1FF"/>
</svg>
