<svg xmlns="http://www.w3.org/2000/svg" width="63" height="63" viewBox="0 0 63 63">
  <g id="Group_17" data-name="Group 17" transform="translate(-54 -101)">
    <g id="Ellipse_38" data-name="Ellipse 38" transform="translate(54 101)" fill="none" stroke="#fff" stroke-width="2.5">
      <circle cx="31.5" cy="31.5" r="31.5" stroke="none"/>
      <circle cx="31.5" cy="31.5" r="30.25" fill="none"/>
    </g>
    <path id="Path_37" data-name="Path 37" d="M-17789,16524.023s.527-4.543,9.594-5.08c1.459-.088,11.115,2.994,12.82,3.574,10.273,3.5,12.129-5.074,20.09-4.359,4.4.395,7.24,3.869,10.881,2.34,2.445-1.02,5.436-.723,6.129-4.018" transform="translate(17844.941 -16388)" fill="none" stroke="#fff" stroke-width="2"/>
    <path id="Path_38" data-name="Path 38" d="M-17785.453,16529.252a45.574,45.574,0,0,0,8.531-4.967c4.018-3.049,14.727-2.553,20.109-.814s11.4,3.932,18.1,0,6.629-2.623,10.154-2.514" transform="translate(17843.828 -16382)" fill="none" stroke="#fff" stroke-width="2"/>
    <path id="Path_39" data-name="Path 39" d="M-17779.8,16521.848s-4.307-2.52.561-2.9c1.412-.088,7.986,3.961,12.418,3.574,6.486-.055,11.746-5.074,19.459-4.359,4.264.395,15.8,1.617,16.475-1.678" transform="translate(17843 -16370)" fill="none" stroke="#fff" stroke-width="2"/>
  </g>
</svg>
