<svg width="44" height="44" viewBox="0 0 44 44" fill="none" xmlns="http://www.w3.org/2000/svg">
<path d="M22 42.5C33.3218 42.5 42.5 33.3218 42.5 22C42.5 10.6782 33.3218 1.5 22 1.5C10.6782 1.5 1.5 10.6782 1.5 22C1.5 33.3218 10.6782 42.5 22 42.5Z" stroke="white" stroke-width="1.5"/>
<path d="M1.71094 23.7161C3.69694 23.8921 4.2291 21.7913 8.23177 21.474C12.1331 21.262 13.3317 21.7102 14.4857 22.1289C23.4637 25.2449 24.3242 20.9553 29.7122 21.474C32.6942 21.7593 35.6459 23.3408 38.1719 23.0208C40.1925 22.8322 42.0078 22.9212 42.4792 20.5352" stroke="white" stroke-width="1.5"/>
<path d="M2.84766 29.008C2.84766 29.008 7.21074 30.7153 11.3581 29.008C15.5054 27.3006 19.3735 27.0273 22.9661 27.9806C26.5588 28.934 30.5573 29.362 34.2813 27.9806C38.0053 26.5993 39.6589 27.6577 41.7422 27.2957" stroke="white" stroke-width="1.5"/>
<path d="M5.38379 33.922C5.38379 33.922 5.37998 33.5222 6.87598 33.2475C10.076 33.1369 12.1053 34.5071 15.0426 35.2098C16.7589 35.5389 18.5329 35.3896 20.1702 34.7788C22.0322 34.1474 23.1311 33.2963 27.5531 33.2449C33.2964 33.2316 33.6703 36.0509 39.1689 33.2449" stroke="white" stroke-width="1.5"/>
</svg>
