<svg width="84" height="84" viewBox="0 0 84 84" fill="none" xmlns="http://www.w3.org/2000/svg">
<path d="M5.88934 42.5C8.41132 46.3008 11.3017 49.844 14.5187 53.0784L14.5194 53.079C21.3197 59.8899 30.68 66.125 42 66.125C53.3201 66.125 62.675 59.8898 69.4856 53.0793L69.4865 53.0784C72.767 49.7802 75.7078 46.1609 78.2647 42.2748L78.4455 42L78.2647 41.7252C75.7078 37.8391 72.767 34.2197 69.4865 30.9216L69.4856 30.9207C62.675 24.1101 53.3148 17.875 42 17.875C30.6799 17.875 21.325 24.1102 14.5144 30.9207L14.5135 30.9216C11.233 34.2197 8.29216 37.8391 5.7353 41.7252L5.2255 42.5H5.88934ZM83.4263 42C83.413 42.0233 83.3987 42.0483 83.3834 42.0748C83.2636 42.2828 83.0838 42.5893 82.8452 42.9802C82.3679 43.7622 81.6556 44.8815 80.7187 46.2258C78.8442 48.9153 76.0737 52.5004 72.4902 56.0839C65.3145 63.2597 54.9347 70.375 42 70.375C29.0653 70.375 18.6855 63.2597 11.5098 56.0839C7.92628 52.5004 5.15577 48.9153 3.28129 46.2258C2.34436 44.8815 1.63209 43.7622 1.15481 42.9802C0.916181 42.5893 0.73635 42.2828 0.6166 42.0748C0.601315 42.0483 0.587009 42.0233 0.573685 42C0.587009 41.9767 0.601315 41.9517 0.6166 41.9252C0.73635 41.7172 0.916181 41.4107 1.15481 41.0198C1.63209 40.2378 2.34436 39.1185 3.28129 37.7742C5.15577 35.0847 7.92628 31.4996 11.5098 27.9161C18.6855 20.7403 29.0653 13.625 42 13.625C54.9347 13.625 65.3145 20.7403 72.4902 27.9161C76.0737 31.4996 78.8442 35.0847 80.7187 37.7742C81.6556 39.1185 82.3679 40.2378 82.8452 41.0198C83.0838 41.4107 83.2636 41.7172 83.3834 41.9252C83.3987 41.9517 83.413 41.9767 83.4263 42Z" fill="#A2F1FF" stroke="#0E131C"/>
<path d="M42 28.375C38.3864 28.375 34.9209 29.8105 32.3657 32.3657C29.8105 34.9209 28.375 38.3864 28.375 42C28.375 45.6136 29.8105 49.0791 32.3657 51.6343C34.9209 54.1895 38.3864 55.625 42 55.625C45.6136 55.625 49.0791 54.1895 51.6343 51.6343C54.1895 49.0791 55.625 45.6136 55.625 42C55.625 38.3864 54.1895 34.9209 51.6343 32.3657C49.0791 29.8105 45.6136 28.375 42 28.375ZM24.125 42C24.125 37.2593 26.0083 32.7127 29.3605 29.3605C32.7127 26.0083 37.2593 24.125 42 24.125C46.7407 24.125 51.2873 26.0083 54.6395 29.3605C57.9917 32.7127 59.875 37.2593 59.875 42C59.875 46.7407 57.9917 51.2873 54.6395 54.6395C51.2873 57.9917 46.7407 59.875 42 59.875C37.2593 59.875 32.7127 57.9917 29.3605 54.6395C26.0083 51.2873 24.125 46.7407 24.125 42Z" fill="#A2F1FF" stroke="#0E131C"/>
</svg>
