<svg width="84" height="84" viewBox="0 0 84 84" fill="none" xmlns="http://www.w3.org/2000/svg">
<path d="M31.9265 23.293C31.2006 19.7305 30.3278 14.9404 30.3278 12.4229C30.3213 11.4135 30.5153 10.4128 30.8986 9.47898C31.2819 8.54515 31.8468 7.69672 32.5606 6.98294C33.2744 6.26917 34.1228 5.70424 35.0566 5.32096C35.9905 4.93767 36.9911 4.74365 38.0005 4.75016V4.75016C42.2384 4.75016 45.6733 8.26664 45.6733 12.4229C45.6733 14.8721 44.8049 19.6889 44.0746 23.293" stroke="#A2F1FF" stroke-width="2.5" stroke-miterlimit="10" stroke-linecap="round"/>
<path d="M31.9265 52.707C31.1976 56.2784 30.3278 61.0433 30.3278 63.5771C30.3213 64.5865 30.5153 65.5872 30.8986 66.521C31.2819 67.4549 31.8468 68.3033 32.5606 69.0171C33.2744 69.7308 34.1228 70.2958 35.0566 70.679C35.9905 71.0623 36.9911 71.2563 38.0005 71.2498V71.2498C42.2384 71.2498 45.6733 67.7334 45.6733 63.5771C45.6733 61.122 44.8049 56.3141 44.0746 52.707" stroke="#A2F1FF" stroke-width="2.5" stroke-miterlimit="10" stroke-linecap="round"/>
<path d="M52.707 31.927C56.2784 31.1981 61.0433 30.3283 63.5771 30.3283C64.5865 30.3218 65.5872 30.5158 66.521 30.8991C67.4549 31.2824 68.3033 31.8473 69.0171 32.5611C69.7308 33.2748 70.2958 34.1233 70.679 35.0571C71.0623 35.9909 71.2563 36.9916 71.2498 38.001V38.001C71.2498 42.2389 67.7334 45.6738 63.5771 45.6738C61.1279 45.6738 56.3111 44.8054 52.707 44.0751" stroke="#A2F1FF" stroke-width="2.5" stroke-miterlimit="10" stroke-linecap="round"/>
<path d="M23.293 31.9255C19.7305 31.1996 14.9434 30.3283 12.4229 30.3283C11.4135 30.3218 10.4128 30.5158 9.47898 30.8991C8.54515 31.2824 7.69672 31.8473 6.98294 32.5611C6.26917 33.2748 5.70424 34.1233 5.32096 35.0571C4.93767 35.9909 4.74365 36.9916 4.75016 38.001V38.001C4.75016 42.2389 8.26664 45.6738 12.4229 45.6738C14.8721 45.6738 19.6889 44.8054 23.293 44.0751" stroke="#A2F1FF" stroke-width="2.5" stroke-miterlimit="10" stroke-linecap="round"/>
<path d="M44.0742 23.2929C46.0855 20.2529 48.8687 16.2792 50.6604 14.4891C51.3694 13.7706 52.2142 13.2 53.1455 12.8106C54.0769 12.4212 55.0763 12.2207 56.0858 12.2207C57.0953 12.2207 58.0947 12.4212 59.026 12.8106C59.9574 13.2 60.8021 13.7706 61.5112 14.4891V14.4891C64.5081 17.486 64.4502 22.4008 61.5112 25.3399C59.7804 27.0721 55.7711 29.8924 52.7073 31.926" stroke="#A2F1FF" stroke-width="2.5" stroke-miterlimit="10" stroke-linecap="round"/>
<path d="M23.2927 44.0742C20.2527 46.0855 16.279 48.8687 14.4888 50.6604C13.7703 51.3694 13.1998 52.2142 12.8104 53.1455C12.421 54.0769 12.2205 55.0763 12.2205 56.0858C12.2205 57.0953 12.421 58.0947 12.8104 59.026C13.1998 59.9574 13.7703 60.8021 14.4888 61.5112C17.4858 64.5081 22.4006 64.4502 25.3396 61.5112C27.0719 59.7804 29.8922 55.7711 31.9258 52.7073" stroke="#A2F1FF" stroke-width="2.5" stroke-miterlimit="10" stroke-linecap="round"/>
<path d="M52.7073 44.0742C55.7473 46.0855 59.721 48.8687 61.5112 50.6604C62.2297 51.3694 62.8002 52.2142 63.1896 53.1455C63.579 54.0769 63.7796 55.0763 63.7796 56.0858C63.7796 57.0953 63.579 58.0947 63.1896 59.026C62.8002 59.9574 62.2297 60.8021 61.5112 61.5112V61.5112C58.5142 64.5081 53.5995 64.4502 50.6604 61.5112C48.9252 59.7759 46.1093 55.7741 44.0742 52.7073" stroke="#A2F1FF" stroke-width="2.5" stroke-miterlimit="10" stroke-linecap="round"/>
<path d="M31.9255 23.2929C29.9171 20.2603 27.1191 16.2689 25.3393 14.4891C24.6302 13.7706 23.7855 13.2 22.8542 12.8106C21.9228 12.4212 20.9234 12.2207 19.9139 12.2207C18.9044 12.2207 17.905 12.4212 16.9736 12.8106C16.0423 13.2 15.1976 13.7706 14.4885 14.4891V14.4891C11.4916 17.486 11.5494 22.4008 14.4885 25.3399C16.2119 27.0632 20.233 29.8939 23.2923 31.926" stroke="#A2F1FF" stroke-width="2.5" stroke-miterlimit="10" stroke-linecap="round"/>
<path d="M38 47.5C43.2467 47.5 47.5 43.2467 47.5 38C47.5 32.7533 43.2467 28.5 38 28.5C32.7533 28.5 28.5 32.7533 28.5 38C28.5 43.2467 32.7533 47.5 38 47.5Z" stroke="#A2F1FF" stroke-width="2.5" stroke-miterlimit="10" stroke-linecap="round"/>
</svg>
