<svg width="84" height="84" viewBox="0 0 84 84" fill="none" xmlns="http://www.w3.org/2000/svg">
<path d="M27.1041 60.7261L27.1032 60.7252C24.3332 57.9607 20.5796 56.408 16.666 56.408C12.7525 56.408 8.99887 57.9607 6.22886 60.7252L6.22799 60.7261C5.95721 60.9968 5.63575 61.2116 5.28195 61.3582C4.92817 61.5047 4.54898 61.5802 4.16604 61.5802C3.7831 61.5802 3.40391 61.5047 3.05012 61.3582C2.69633 61.2116 2.37487 60.9968 2.10409 60.7261C1.83331 60.4553 1.61852 60.1338 1.47197 59.78C1.32543 59.4262 1.25 59.0471 1.25 58.6641C1.25 58.2812 1.32543 57.902 1.47197 57.5482C1.61841 57.1947 1.83301 56.8734 2.10353 56.6027C5.96969 52.748 11.2065 50.5833 16.666 50.5833C22.1259 50.5833 27.363 52.7482 31.2292 56.6034L31.2294 56.6036C34.0004 59.3658 37.7535 60.9168 41.666 60.9168C45.5786 60.9168 49.3316 59.3658 52.1027 56.6036L52.1041 56.6022C52.3749 56.3314 52.6963 56.1166 53.0501 55.9701C53.4039 55.8235 53.7831 55.7481 54.166 55.7481C54.549 55.7481 54.9282 55.8235 55.282 55.9701C55.6358 56.1166 55.9572 56.3314 56.228 56.6022C56.4988 56.8729 56.7136 57.1944 56.8601 57.5482C57.0067 57.902 57.0821 58.2812 57.0821 58.6641C57.0821 59.0471 57.0067 59.4262 56.8601 59.78C56.7136 60.1338 56.4988 60.4553 56.228 60.7261L56.2277 60.7263C54.3167 62.6385 52.0467 64.1544 49.5482 65.1869C47.0497 66.2195 44.3719 66.7484 41.6684 66.7433L41.664 66.7433C38.9605 66.7478 36.2828 66.2185 33.7843 65.186C31.2858 64.1534 29.0157 62.6378 27.1041 60.7261ZM41.6684 50.0766L41.664 50.0766C38.9605 50.0811 36.2828 49.5519 33.7843 48.5193C31.2858 47.4868 29.0157 45.9712 27.1041 44.0594L27.1032 44.0585C24.3332 41.294 20.5796 39.7413 16.666 39.7413C12.7525 39.7413 8.99887 41.294 6.22886 44.0585L6.22799 44.0594C5.68112 44.6063 4.93942 44.9135 4.16604 44.9135C3.39266 44.9135 2.65095 44.6063 2.10409 44.0594L1.22932 44.9342L2.10409 44.0594C1.55723 43.5125 1.25 42.7708 1.25 41.9974C1.25 41.2242 1.55712 40.4826 2.10381 39.9358C5.96995 36.0812 11.2066 33.9167 16.666 33.9167C22.1259 33.9167 27.363 36.0816 31.2292 39.9368L31.2294 39.9369C34.0004 42.6991 37.7535 44.2501 41.666 44.2501C45.5786 44.2501 49.3316 42.6991 52.1027 39.9369L52.1041 39.9355C52.651 39.3886 53.3927 39.0814 54.166 39.0814C54.9394 39.0814 55.6811 39.3886 56.228 39.9355C56.7749 40.4824 57.0821 41.2241 57.0821 41.9974C57.0821 42.7708 56.7749 43.5125 56.228 44.0594L56.2277 44.0597C54.3167 45.9718 52.0467 47.4877 49.5482 48.5203C47.0497 49.5528 44.3719 50.0817 41.6684 50.0766ZM41.6684 33.4099L41.664 33.4099C38.9605 33.4144 36.2828 32.8852 33.7843 31.8526C31.2858 30.8201 29.0157 29.3045 27.1041 27.3928L27.1032 27.3919C24.3332 24.6273 20.5796 23.0747 16.666 23.0747C12.7525 23.0747 8.99887 24.6273 6.22886 27.3919L6.22799 27.3927C5.95721 27.6635 5.63575 27.8783 5.28196 28.0248C4.92817 28.1714 4.54898 28.2468 4.16604 28.2468C3.7831 28.2468 3.40391 28.1714 3.05012 28.0248C2.69633 27.8783 2.37486 27.6635 2.10409 27.3927C1.83331 27.122 1.61852 26.8005 1.47197 26.4467C1.32543 26.0929 1.25 25.7137 1.25 25.3308C1.25 24.9478 1.32543 24.5686 1.47197 24.2149C1.61841 23.8613 1.83301 23.54 2.10353 23.2694C5.96969 19.4146 11.2065 17.25 16.666 17.25C22.1259 17.25 27.363 19.4149 31.2292 23.2701L31.2294 23.2702C34.0004 26.0324 37.7535 27.5834 41.666 27.5834C45.5786 27.5834 49.3316 26.0324 52.1027 23.2702L52.1041 23.2688C52.651 22.722 53.3927 22.4147 54.166 22.4147C54.9394 22.4147 55.6811 22.722 56.228 23.2688C56.7749 23.8157 57.0821 24.5574 57.0821 25.3308C57.0821 26.1042 56.7749 26.8459 56.228 27.3927L56.2277 27.393C54.3167 29.3052 52.0467 30.821 49.5482 31.8536C47.0497 32.8862 44.3719 33.4151 41.6684 33.4099Z" fill="#A2F1FF" stroke="#0E131C" stroke-width="2.5"/>
</svg>
