<svg width="100" height="100" viewBox="0 0 100 100" fill="none" xmlns="http://www.w3.org/2000/svg">
<path d="M61.4856 27.9693L62.5014 29.3485L64.0204 28.5568C65.5471 27.7611 67.2748 27.3056 69.1111 27.3056C72.0359 27.3056 74.8408 28.4674 76.9089 30.5355C78.977 32.6036 80.1389 35.4086 80.1389 38.3333H82.1389L80.1389 38.3335C80.1391 40.5056 79.4979 42.6294 78.2959 44.4385C77.0938 46.2476 75.3843 47.6616 73.3818 48.503L71.7458 49.1904L72.2337 50.8967C72.5367 51.9565 72.6918 53.0532 72.6944 54.1555C72.693 60.7603 67.3412 66.1111 60.7361 66.1111H60.7358C59.0885 66.1114 57.459 65.7698 55.9505 65.1079C54.442 64.4461 53.0872 63.4784 51.9719 62.2661L50.5045 60.6712L49.0323 62.2616C46.8412 64.6286 43.7278 66.1111 40.2639 66.1111C33.888 66.1111 28.6862 61.1113 28.3417 54.8122L28.254 53.2091L26.6699 52.948C24.5286 52.5951 22.5822 51.4934 21.1775 49.8392C19.773 48.1852 19.0014 46.0864 19 43.9165C19.0011 41.8482 19.702 39.8411 20.9888 38.2217C22.2758 36.6022 24.0731 35.4659 26.0881 34.9978L27.2049 34.7383L27.5453 33.6436C29.9875 25.7908 37.3136 20.0938 45.9645 20.0938C52.3324 20.0938 57.9687 23.1939 61.4856 27.9693Z" stroke="#A2F1FF" stroke-width="4"/>
<path d="M28.028 73.6947C28.028 75.6737 26.4237 77.278 24.4447 77.278C22.4656 77.278 20.8613 75.6737 20.8613 73.6947C20.8613 71.7156 22.4656 70.1113 24.4447 70.1113C26.4237 70.1113 28.028 71.7156 28.028 73.6947Z" stroke="#A2F1FF" stroke-width="4"/>
</svg>
